<svg xmlns="http://www.w3.org/2000/svg" width="29" height="28" viewBox="0 0 29 28">
    <defs>
        <linearGradient id="a" x1="66.814%" x2="98.343%" y1="-10.507%" y2="111.451%">
            <stop offset="0%" stop-color="#4E60D3"/>
            <stop offset="14.276%" stop-color="#913BAF"/>
            <stop offset="76.146%" stop-color="#D52D88"/>
            <stop offset="100%" stop-color="#F26D4F"/>
        </linearGradient>
        <radialGradient id="b" cx="30.274%" cy="100%" r="93.395%" fx="30.274%" fy="100%" gradientTransform="matrix(.84656 .53229 -.38307 .60925 .43 .23)">
            <stop offset="0%" stop-color="#FED276"/>
            <stop offset="17.024%" stop-color="#FDBD61" stop-opacity=".975"/>
            <stop offset="45.408%" stop-color="#F6804D"/>
            <stop offset="100%" stop-color="#E83D5C" stop-opacity="0"/>
        </radialGradient>
    </defs>
    <g fill="none" fill-rule="evenodd">
        <path fill="url(#a)" d="M13.92 0C6.232 0 0 6.232 0 13.92s6.232 13.92 13.92 13.92 13.92-6.232 13.92-13.92S21.608 0 13.92 0z" transform="translate(.75)"/>
        <path fill="url(#b)" d="M0 13.92c0 7.688 6.232 13.92 13.92 13.92S0 6.232 0 13.92z" transform="translate(.75)"/>
        <g fill="#FFF" fill-rule="nonzero">
            <path d="M14.525 11.652c-1.17 0-2.123.954-2.123 2.123 0 1.17.954 2.123 2.123 2.123 1.17 0 2.123-.954 2.123-2.123 0-1.17-.954-2.123-2.123-2.123zm6.369 2.123c0-.88.008-1.75-.042-2.628-.049-1.02-.281-1.925-1.027-2.67-.747-.748-1.65-.978-2.67-1.028-.88-.05-1.75-.041-2.628-.041-.88 0-1.751-.008-2.629.041-1.02.05-1.924.282-2.67 1.028-.747.747-.978 1.65-1.027 2.67-.05.879-.042 1.75-.042 2.628 0 .878-.008 1.75.042 2.628.05 1.02.282 1.925 1.027 2.67.747.748 1.65.978 2.67 1.028.88.05 1.75.041 2.629.041s1.75.008 2.628-.041c1.02-.05 1.924-.282 2.67-1.028.747-.747.978-1.65 1.027-2.67.051-.877.042-1.749.042-2.628zm-6.369 3.267a3.263 3.263 0 0 1-3.267-3.267 3.263 3.263 0 0 1 3.267-3.267 3.263 3.263 0 0 1 3.267 3.267 3.263 3.263 0 0 1-3.267 3.267zm3.401-5.905a.762.762 0 1 1 0-1.526.762.762 0 1 1 0 1.526z"/>
        </g>
    </g>
</svg>
