<?xml version="1.0" encoding="UTF-8"?>
<svg id="Layer_2" data-name="Layer 2" xmlns="http://www.w3.org/2000/svg" viewBox="0 0 136.66 35.52">
  <defs>
    <style>
      .cls-1 {
        fill: #231f20;
      }
    </style>
  </defs>
  <g id="Layer_1-2" data-name="Layer 1">
    <g>
      <g>
        <g>
          <path class="cls-1" d="m134.64,10.9c-.57.4-.19,1.21-.13,1.49.21.88.52,1.74.61,2.63.13,1.35-.51,2.28-1.76,2.83-.87.39-1.8.5-2.74.52-1.02,0-1.84-.24-2.47-1.06.2-.67.48-1.55.66-2.23.1-.37.19-.75.21-1.14.03-.4-.19-.69-.6-.76-.37-.05-.62.17-.74.5-.07.21-.77,2.58-1.19,3.47-.54,1.11-1.82,1.59-3.07,1.32-.9-.2-1.52-1.05-1.62-2.28-.03-.29-.02-.71-.02-1,0-1.16-.27-1.26-.57-1.26-.4,0-.62.26-.78.57-.12.22-.17.48-.26.72-.47,1.3-1.32,2.21-2.7,2.53-1.17.28-2.1-.25-2.32-1.43-.11-.58-.06-1.21.02-1.81.03-.24.26-1.13-.24-1.37-.81-.39-1.17.58-1.32.78-.94,1.34-1.57,1.58-2.71,1.98-3.55,1.26-15.28,1.19-18.36,1.26-3.88.09-17.87.28-20.8-.02-1.45-.15-2.74-.69-3.74-1.75.32-.67.71-1.28.93-1.94.88-2.66-.83-4.93-3.62-4.92-1.4,0-2.57.55-3.66,1.35-1.51,1.11-2.69,2.52-3.62,4.13-.5.87-.96,1.76-1.53,2.81-.57-.37-1.09-.67-1.57-1.04-1.03-.78-1.37-.73-2.16.25-.25.32-.57.62-.93.83-1.25.69-2.93.2-3.68-1.12-.37-.64-.59-1.37-.84-2.07-.2-.58-.3-1.2-.53-1.76-.58-1.38-1.62-2.1-3.15-2.17-3.09-.16-7.59,2.72-6.34,7.43.12.45.29.85.53,1.22.29.44.75.53,1.1.33.36-.21.44-.62.24-1.12-.12-.3-.26-.61-.33-.9-.54-2.16.96-4.31,3.04-5.09,1.89-.71,3.3-.37,3.78,1.89.22,1.06.64,2.11,1.16,3.06,1.14,2.1,4.54,3.21,6.83.9.11-.11.23-.21.36-.33.62.38,1.22.75,1.86,1.14-.3.73-.58,1.41-.87,2.09-.16.38-.14.7.22.93.32.22.74.11,1-.27.16-.24.27-.52.39-.78.25-.52.49-1.04.74-1.57,3.47.52,6.53-.41,9.41-2.26,1.52,1.54,3.33,1.98,5.42,2.15.97.08,13.57.04,14.08.04,6.01-.1,12.03-.21,18.05-.35,1.45-.04,2.9-.16,4.35-.35,1.66-.23,3.41-.74,4.89-1.74.03.48.1.81.21,1.11.55,1.34,1.57,2.01,3,2.07,1.14.05,2.15-.34,3.07-1.02.22-.17.45-.34.7-.54.66,1.37,1.67,2.19,3.17,2.28,1.43.08,2.77-.49,3.69-1.37.73.57,1.38.93,2.14,1.11,1.67.39,3.3.06,4.8-.7,1.34-.66,2.12-1.78,2.31-3.26.2-1.67-.85-5.77-2-4.97Zm-67.19,2.04c-.25.83-.74,1.52-1.43,2.02-2.27,1.68-4.81,2.47-7.64,2.25-.05,0-.1-.06-.24-.16.36-.66.71-1.34,1.09-2,.85-1.43,1.83-2.74,3.16-3.76.86-.66,1.79-1.18,2.9-1.2,1.71-.02,2.64,1.22,2.15,2.85Z"/>
          <path class="cls-1" d="m134.73,23.28c-.39.16-.85.09-1.13-.23-.03-.04-.06-.08-.09-.12-.18-.32.01-.65.32-.8.37-.18.76-.36,1.16-.41.22-.03.54.17.69.36.22.29.09.65-.21.83-.23.14-.47.25-.74.36Z"/>
          <path d="m57.18,1.39c-.02-.23-.07-.45-.07-.67,0-.37.18-.63.54-.7.36-.07.64.12.77.45.12.3.19.62.25.94.62,3.43.54,4.89.44,8.36,0,.29-.17.64-.37.84-.35.33-.92.13-1.08-.37-.1-.3-.1-.64-.1-.96-.03-1.16-.04-2.33-.05-3.49.08,0-.11-2.26-.31-4.38Z"/>
        </g>
        <g>
          <path class="cls-1" d="m113.98,28.3c.55-.58.92-1.08,1.39-1.45.8-.65,1.63-1.27,2.5-1.81.64-.4,1.39-.48,2.16-.33,1.02.21,1.68.9,1.69,1.94,0,.7-.09,1.42-.26,2.1-.42,1.7-.92,5.58-1.01,5.99-.12.53-.44.81-.84.77-.45-.04-.75-.4-.69-.99.16-1.6.37-2.8.6-4.39.11-.8.35-1.57.53-2.36.04-.19.09-.38.11-.57.07-.79-.24-1.09-1.03-.94-.37.07-.74.24-1.07.44-1.41.86-2.88,2.03-3.81,3.34-.9,1.3-.63,2.8-1.15,4.15-.3.79-.57,1.12-1.07,1.02-.52-.1-.71-.56-.57-1.43.34-2.17.7-4.34.99-6.51.18-1.38.24-2.77.37-4.15.05-.55.14-1.09.23-1.63.04-.22.12-.44.22-.64.17-.36.46-.55.87-.44.43.12.51.46.45.84-.07.45-.2.89-.23,1.33-.14,1.83-.25,3.67-.39,5.71Z"/>
          <path class="cls-1" d="m40.31,25.32c-.47,0-.82,0-1.17-.01-.61-.03-.93-.3-.93-.76,0-.45.32-.73.93-.77.42-.03.83,0,1.3,0,.23-.84.43-1.61.66-2.37.24-.8.51-1.6.79-2.39.09-.27.23-.54.39-.78.21-.31.57-.41.85-.21.47.39.22,1.14.15,1.36-.4,1.35-.81,2.7-1.25,4.21.98-.1,1.78-.17,2.57-.25.19-.02,1.03-.09,1.11.56.06.54-.66.78-1.17.87-.89.14-1.66.24-2.54.36-.5,2.69.84,5.15,3.37,6.26,1.86.82,3.81.98,5.8.72,3.11-.4,5.99-1.54,8.88-2.68,3.99-1.58,7.97-3.21,11.99-4.72,2.72-1.02,5.56-1.68,8.44-2.12,3.95-.61,7.47-.48,11.09,1.12,7.11,3.09,4.6,10.12,4.35,10.57-.27.49-.66.65-1.03.5-.41-.17-.57-.6-.37-1.16.21-.58,1.4-5.14-2-7.53-1.48-1.04-2.28-1.38-4-1.84-3.35-.91-7.46-.28-10.77.48-4.59,1.05-8.93,2.79-13.26,4.59-3.31,1.37-6.6,2.81-10.06,3.77-2.04.57-4.12.84-6.24.64-2.07-.2-3.98-.82-5.55-2.27-1.5-1.39-2.3-3.09-2.32-5.15,0-.29,0-.57,0-.99Z"/>
          <path class="cls-1" d="m8.39,25.45c.46.1.72.12.95.21.69.26,1.43.44,2.03.84,1.48.98,1.82,2.47,1.08,4.08-.4.88-1.06,1.54-1.82,2.1-1.57,1.17-3.36,1.75-5.26,2.09-1.56.27-3.09.21-4.59-.31-.68-.23-.91-.57-.72-1.15.65-2,.64-4.08.87-6.13.25-2.31.53-4.62.78-6.94.05-.48.22-.9.62-1.15,1.79-1.14,3.69-1.86,5.86-1.42,1.05.22,1.9.81,2.56,1.64.9,1.13.98,2.35.32,3.62-.45.85-1.15,1.47-1.94,2-.19.12-.37.25-.74.51Zm-6.5,7.64c1.23.35,1.63.39,3.31.1,1.84-.31,3.57-.9,4.98-2.19.69-.63,1.29-1.41.97-2.37-.32-.99-1.26-1.34-2.23-1.45-2.16-.25-4.29.11-6.39.42-.22,1.85-.43,3.64-.64,5.48Zm.71-7.18c2.36-.63,4.46-1.31,6.24-2.73.32-.25.59-.6.81-.95.43-.71.37-1.33-.17-1.96-.76-.89-1.74-1.34-2.92-1.19-.63.08-1.25.28-1.88.44-1.07.28-1.7.82-1.7,2.07,0,1.38-.23,2.75-.38,4.32Z"/>
          <path class="cls-1" d="m33.23,22.23c1.21.06,2.38.26,3.44.91.19.12.45.22.53.4.11.23.18.6.07.79-.11.19-.47.27-.73.3-.16.02-.36-.13-.53-.22-1.28-.68-2.65-.84-4.04-.52-.49.11-.97.36-1.39.64-.47.31-.59.83-.46,1.38.14.57.52.93,1.09.94.6.02,1.22-.07,1.82-.14.77-.1,1.53-.31,2.3-.33,2.31-.06,3.52,1.91,2.46,3.98-.13.26-.29.5-.47.73-1.55,2.01-4.8,3.11-7.24,2.45-1.74-.47-2.78-1.7-2.76-3.29,0-.22-.01-.5.11-.65.16-.21.43-.41.68-.44.2-.02.48.18.61.37.14.19.18.49.18.74,0,.8.43,1.29,1.11,1.54.51.19,1.06.37,1.59.35,1.35-.04,2.63-.41,3.69-1.29.44-.36.84-.82,1.1-1.32.49-.93.04-1.66-1-1.59-.96.06-1.91.33-2.87.44-.6.06-1.23.08-1.82-.04-1.16-.22-1.86-.99-2.13-2.13-.27-1.14.07-2.11.94-2.88.62-.55,1.37-.85,2.18-.99.51-.09,1.03-.09,1.55-.13Z"/>
          <path class="cls-1" d="m22.21,26.38c.26-.1.4-.2.56-.22.75-.11,1.16.41.89,1.14-.1.27-.3.5-.4.77-.23.63-.46,1.27-.62,1.92-.1.4.09.72.48.96.73.46,1.62-.51,1.89-.87.22-.3.48-.91.88-.88.43.03.73.45.65.91-.26,1.52-2.17,2.79-3.67,2.45-.73-.17-1.22-.67-1.7-1.27-.41.39-.76.76-1.15,1.09-1.08.93-2.27,1.59-3.76,1.51-1.63-.09-2.82-1.4-2.72-3.03.02-.26.05-.52.11-.77.52-2.26,3.17-4.63,5.49-4.92,1.23-.15,2.32.07,3.08,1.22Zm-2.6.24c-1.88.38-3.29,1.44-4.17,3.14-.35.69-.63,1.49.04,2.16.68.68,1.49.44,2.25.09,1.03-.47,1.78-1.26,2.45-2.14,1.79-2.44.34-3.43-.57-3.25Z"/>
          <path class="cls-1" d="m106.5,27.14c.26-.1.4-.2.56-.22.75-.11,1.16.41.89,1.14-.1.27-.3.5-.4.77-.23.63-.46,1.27-.62,1.92-.1.4.09.72.48.96.73.46,1.62-.51,1.89-.87.22-.3.48-.91.88-.88.43.03.73.45.65.91-.26,1.52-2.17,2.79-3.67,2.45-.73-.17-1.22-.67-1.7-1.27-.41.39-.76.76-1.15,1.09-1.08.93-2.27,1.59-3.76,1.51-1.63-.09-2.82-1.4-2.72-3.03.02-.26.05-.52.11-.77.52-2.26,3.17-4.63,5.49-4.92,1.23-.15,2.32.07,3.08,1.22Zm-2.6.24c-1.88.38-3.29,1.44-4.17,3.14-.35.69-.63,1.49.04,2.16.68.68,1.49.44,2.25.09,1.03-.47,1.78-1.26,2.45-2.14,1.79-2.44.34-3.43-.57-3.25Z"/>
        </g>
      </g>
      <path class="cls-1" d="m44.35,3.52c-2.43-.85-5.46.13-7.06,2.11-.25.31-.31.75,0,1.06.26.26.8.32,1.06,0,1.31-1.62,3.64-2.42,5.6-1.73.38.13.82-.15.92-.52.11-.41-.14-.79-.52-.92h0Z"/>
    </g>
  </g>
</svg>