<?xml version="1.0" encoding="UTF-8"?>
<svg id="Layer_2" data-name="Layer 2" xmlns="http://www.w3.org/2000/svg" viewBox="0 0 57.42 50.86">
  <defs>
    <style>
      .cls-1, .cls-2 {
        fill: #231f20;
      }

      .cls-2 {
        font-family: Karla-Regular, Karla;
        font-size: 6px;
        font-variation-settings: 'wght' 400;
      }
    </style>
  </defs>
  <g id="Layer_1-2" data-name="Layer 1">
    <g>
      <text class="cls-2" transform="translate(4.61 49.38)"><tspan x="0" y="0">ONLINE SHOP</tspan></text>
      <g>
        <g>
          <path class="cls-1" d="m0,7.85c3.39,0,6.76-.01,7.01-.01,6.01-.1,12.03-.21,18.05-.35,1.45-.04,2.9-.16,4.35-.35,1.66-.23,3.41-.74,4.89-1.74.03.48.1.81.21,1.11.55,1.34,1.57,2.01,3,2.07,1.14.05,2.15-.34,3.07-1.02.22-.17.45-.34.7-.54.66,1.37,1.67,2.19,3.17,2.28,1.43.08,2.77-.49,3.69-1.37.73.57,1.38.93,2.14,1.11,1.67.39,3.3.06,4.8-.7,1.34-.66,2.12-1.78,2.31-3.26.2-1.67-.85-5.77-2-4.97-.57.4-.19,1.21-.13,1.49.21.88.52,1.74.61,2.63.13,1.35-.51,2.28-1.76,2.83-.87.39-1.8.5-2.74.52-1.02,0-1.84-.24-2.47-1.06.2-.67.48-1.55.66-2.23.1-.37.19-.75.21-1.14.03-.4-.19-.69-.6-.76-.37-.05-.62.17-.74.5-.07.21-.77,2.58-1.19,3.47-.54,1.11-1.82,1.59-3.07,1.32-.9-.2-1.52-1.05-1.62-2.28-.03-.29-.02-.71-.02-1,0-1.16-.27-1.26-.57-1.26-.4,0-.62.26-.78.57-.12.22-.17.48-.26.72-.47,1.3-1.32,2.21-2.7,2.53-1.17.28-2.1-.25-2.32-1.43-.11-.58-.06-1.21.02-1.81.03-.24.26-1.13-.24-1.37-.81-.39-1.17.58-1.32.78-.94,1.34-1.57,1.58-2.71,1.98-3.55,1.26-15.28,1.19-18.36,1.26-2.32.05-8.27.14-13.29.14"/>
          <path class="cls-1" d="m55.48,12.48c-.39.16-.85.09-1.13-.23-.03-.04-.06-.08-.09-.12-.18-.32.01-.65.32-.8.37-.18.76-.36,1.16-.41.22-.03.54.17.69.36.22.29.09.65-.21.83-.23.14-.47.25-.74.36Z"/>
        </g>
        <path d="m51.01,25.41c-2.17.24-4.33.39-6.49.55-1.78.12-5.33.26-5.33.26-1.61.06-2.89.11-3.57.05-1.45-.13-2.76-.65-3.77-1.7.31-.66.69-1.28.9-1.95.84-2.67-.9-4.92-3.68-4.87-1.4.03-2.56.59-3.64,1.4-1.51,1.12-2.66,2.55-3.56,4.18-.5.88-.94,1.76-1.49,2.83-.57-.36-1.1-.66-1.58-1.02-1.04-.77-1.38-.71-2.16.29-.24.31-.55.63-.91.83-1.24.71-2.93.24-3.71-1.07-.38-.62-.61-1.35-.87-2.05-.21-.58-.31-1.2-.55-1.75-.59-1.36-1.65-2.08-3.18-2.12-3.08-.12-7.55,2.81-6.23,7.52.13.45.29.85.54,1.21.3.44.76.52,1.1.31.36-.21.43-.63.22-1.12-.12-.3-.26-.61-.34-.9-.57-2.14.9-4.32,2.97-5.13,1.88-.74,3.29-.42,3.81,1.84.23,1.06.67,2.09,1.2,3.04,1.17,2.08,4.58,3.15,6.83.81.11-.11.23-.21.36-.33.64.37,1.23.73,1.89,1.11-.29.73-.56,1.42-.84,2.1-.16.37-.13.69.23.93.32.22.74.1,1-.28.16-.24.26-.52.38-.78.24-.52.48-1.05.72-1.58,3.48.47,6.52-.5,9.38-2.39,1.54,1.52,3.36,1.93,5.44,2.08.27.02,3.07-.02,3.07-.02,3.75-.17,7.49-.32,11.22-.76,3.38-.4,3-.34,6.48-.59l-.02-1.46c-3.13.21-2.55.17-5.81.53Zm-19.75-3.28c-.24.83-.72,1.53-1.4,2.04-2.25,1.71-4.78,2.54-7.61,2.36-.05,0-.1-.06-.24-.16.36-.67.69-1.35,1.06-2.01.83-1.43,1.79-2.77,3.11-3.8.85-.67,1.77-1.19,2.89-1.24,1.7-.03,2.65,1.18,2.19,2.82Z"/>
        <path d="m20.92,11.33c-.02-.23-.07-.45-.07-.67,0-.37.18-.63.54-.7.36-.07.64.12.77.45.12.3.19.62.25.94.62,3.43.54,4.89.44,8.36,0,.29-.17.64-.37.84-.35.33-.92.13-1.08-.37-.1-.3-.1-.64-.1-.96-.03-1.16-.04-2.33-.05-3.49.08,0-.11-2.26-.31-4.38Z"/>
      </g>
      <path d="m8.27,13.04c-2.43-.85-5.46.13-7.06,2.11-.25.31-.31.75,0,1.06.26.26.8.32,1.06,0,1.31-1.62,3.64-2.42,5.6-1.73.38.13.82-.15.92-.52.11-.41-.14-.79-.52-.92h0Z"/>
    </g>
  </g>
</svg>