<?xml version="1.0" encoding="UTF-8"?>
<svg width="180px" height="180px" viewBox="0 0 180 180" version="1.1" xmlns="http://www.w3.org/2000/svg" xmlns:xlink="http://www.w3.org/1999/xlink">
    <!-- Generator: sketchtool 53.2 (72643) - https://sketchapp.com -->
    <title>16924F0E-12FF-4888-A244-404697241EB1</title>
    <desc>Created with sketchtool.</desc>
    <g id="Page-1" stroke="none" stroke-width="1" fill="none" fill-rule="evenodd">
        <g id="19-empty-discount" transform="translate(-739.000000, -329.000000)" fill-rule="nonzero">
            <g id="Group-4" transform="translate(570.000000, 329.000000)">
                <g id="Group-6">
                    <g id="Group-2" transform="translate(169.000000, 0.000000)">
                        <circle id="Oval-Copy" fill="#A9A9B0" opacity="0.15" cx="90" cy="90" r="90"></circle>
                        <g id="discount-(1)" transform="translate(90.500000, 90.500000) scale(-1, 1) translate(-90.500000, -90.500000) translate(55.000000, 55.000000)">
                            <path d="M67.7380559,35.5024579 L70.8530883,27.3779579 C71.1947656,26.481645 70.9285235,25.4655279 70.1786083,24.8576324 L63.4249341,19.3821366 L62.0582248,10.7872942 C61.9073543,9.83773494 61.1618764,9.09672375 60.2122797,8.94585919 L51.6170977,7.57920382 L46.1458229,0.821359241 C45.5423409,0.0714736639 44.5039967,-0.194757902 43.6298352,0.146905941 L35.5005769,3.26625245 L27.375756,0.151343134 C26.4749703,-0.194757902 25.4676878,0.0803480494 24.8597683,0.825796434 L19.3840562,7.58364101 L10.7888742,8.95029639 C9.84371483,9.10116094 9.098237,9.84660932 8.94736649,10.7917314 L7.58065713,19.3865738 L0.822545574,24.8620696 C0.0770677402,25.4655279 -0.193611711,26.481645 0.148065629,27.3779579 L3.26309801,35.5024579 L0.148065629,43.6269578 C-0.198049079,44.5232708 0.0770677402,45.5393879 0.822545574,46.1428461 L7.58065713,51.6139048 L8.94736649,60.2087472 C9.098237,61.1583064 9.83927747,61.9037548 10.7888742,62.0546194 L19.3840562,63.4212748 L24.8597683,70.1746821 C25.4676878,70.9290049 26.483845,71.1952365 27.3801934,70.8491354 L35.5005769,67.7386633 L43.6253979,70.8535726 C43.8827652,70.9511909 44.1490073,71 44.4196867,71 C45.0719798,71 45.7153982,70.7115825 46.1458229,70.1746821 L51.6170977,63.4212748 L60.2122797,62.0546194 C61.1618764,61.9037548 61.9073543,61.1583064 62.0582248,60.2087472 L63.4249341,51.6139048 L70.1786083,46.1428461 C70.9285235,45.5349507 71.1947656,44.5232708 70.8530883,43.6269578 L67.7380559,35.5024579 Z" id="Path" fill="#F44336"></path>
                            <g id="Group" transform="translate(22.000000, 17.000000)" fill="#FAFAFA">
                                <path d="M6.46928497,13.8260506 C2.90418653,13.8260506 0.00296373057,10.725537 0.00296373057,6.91554475 C0.00296373057,3.10555253 2.90418653,0.00503891051 6.46928497,0.00503891051 C10.0343834,0.00503891051 12.9356062,3.10555253 12.9356062,6.91554475 C12.9356062,10.725537 10.0343834,13.8260506 6.46928497,13.8260506 Z M6.46928497,4.6120428 C5.27948187,4.6120428 4.31384456,5.64401167 4.31384456,6.91554475 C4.31384456,8.18707782 5.27948187,9.21904669 6.46928497,9.21904669 C7.65908808,9.21904669 8.62472539,8.18707782 8.62472539,6.91554475 C8.62472539,5.64401167 7.65908808,4.6120428 6.46928497,4.6120428 Z" id="Shape"></path>
                                <path d="M19.4019275,36.86107 C15.836829,36.86107 12.9356062,33.7605564 12.9356062,29.9505642 C12.9356062,26.140572 15.836829,23.0400584 19.4019275,23.0400584 C22.9670259,23.0400584 25.8682487,26.140572 25.8682487,29.9505642 C25.8682487,33.7605564 22.9670259,36.86107 19.4019275,36.86107 Z M19.4019275,27.6470623 C18.2164352,27.6470623 17.246487,28.6836381 17.246487,29.9505642 C17.246487,31.2174903 18.2164352,32.2540661 19.4019275,32.2540661 C20.5874197,32.2540661 21.5573679,31.2174903 21.5573679,29.9505642 C21.5573679,28.6836381 20.5874197,27.6470623 19.4019275,27.6470623 Z" id="Shape"></path>
                                <path d="M2.15840415,36.86107 C1.72300518,36.86107 1.28760622,36.7228599 0.908248705,36.4326187 C-0.0616994819,35.6908911 -0.285865285,34.2535058 0.408186528,33.21693 L21.9625907,0.967902724 C22.6566425,-0.0686731518 24.0016373,-0.308237354 24.9715855,0.433490272 C25.9415337,1.17061089 26.1613886,2.61260311 25.4716477,3.64457198 L3.91724352,35.8935992 C3.49046632,36.5247588 2.83090155,36.86107 2.15840415,36.86107 Z" id="Path"></path>
                            </g>
                        </g>
                    </g>
                </g>
            </g>
        </g>
    </g>
</svg>