<?xml version="1.0" encoding="UTF-8"?>
<svg width="180px" height="180px" viewBox="0 0 180 180" version="1.1" xmlns="http://www.w3.org/2000/svg" xmlns:xlink="http://www.w3.org/1999/xlink">
    <!-- Generator: sketchtool 53.2 (72643) - https://sketchapp.com -->
    <title>7ADE1BDE-C7E7-4A93-AEE9-3F7647085707</title>
    <desc>Created with sketchtool.</desc>
    <g id="Page-1" stroke="none" stroke-width="1" fill="none" fill-rule="evenodd">
        <g id="18-empty-product" transform="translate(-739.000000, -329.000000)" fill-rule="nonzero">
            <g id="Group-4" transform="translate(570.000000, 329.000000)">
                <g id="Group-6">
                    <g id="Group-2" transform="translate(169.000000, 0.000000)">
                        <circle id="Oval" fill="#A9A9B0" opacity="0.15" cx="90" cy="90" r="90"></circle>
                        <g id="shopping-bag-(1)" transform="translate(56.000000, 49.000000)">
                            <path d="M46.9856021,10.3759555 C46.1431393,4.46101459 41.0034506,0 35.0308726,0 C31.1898418,0 27.5419449,1.85670605 25.273872,4.96845031 C24.8106007,5.60305768 24.9492075,6.49325921 25.5827195,6.95733148 C26.2141503,7.41973593 27.1048965,7.28255733 27.5673353,6.64711605 C29.3034579,4.26754691 32.0930751,2.84656011 35.0304563,2.84656011 C39.5982361,2.84656011 43.5279252,6.25642808 44.1722593,10.7774844 C44.273821,11.4875608 44.8819426,12 45.5774739,12 C45.6436555,12 45.7119183,11.9949965 45.7797648,11.9858235 C46.5564622,11.8744962 47.096321,11.1535789 46.9856021,10.3759555 Z" id="Path" fill="#EE9826"></path>
                            <path d="M66.8017439,25.8359489 L62.6278325,18.6934505 C62.3767456,18.2628165 61.9238925,18 61.4347623,18 L57.4348997,18 C56.6669652,18 56.0437317,18.6398828 56.0437317,19.4283323 C56.0437317,20.2167818 56.6669652,20.8566646 57.4348997,20.8566646 L60.6472626,20.8566646 L63.1516095,25.1420799 L6.84823416,25.1420799 L9.35258104,20.8566646 L10.8260859,20.8566646 C11.5940204,20.8566646 12.2172539,20.2167818 12.2172539,19.4283323 C12.2172539,18.6398828 11.5940204,18 10.8260859,18 L8.56508134,18 C8.07595109,18 7.623098,18.2628165 7.37201114,18.6934505 L3.19809968,25.8359489 C2.94008348,26.2778824 2.93396935,26.8273697 3.18057252,27.2751622 C3.42717568,27.7229546 3.88940377,28 4.39116988,28 L65.6086737,28 C66.1104399,28 66.5722603,27.7229546 66.8192711,27.2751622 C67.0662819,26.8273697 67.0597601,26.2770454 66.8017439,25.8359489 Z" id="Path" fill="#434343"></path>
                            <path d="M59.7925304,12.9646115 C59.5992044,12.6583199 59.2906108,12.4410157 58.933888,12.359179 L40.1145347,8.03573904 C39.7582163,7.95350509 39.3828889,8.01468397 39.0714642,8.20378232 C38.7608484,8.39367521 38.5392111,8.69678875 38.4558949,9.04717688 L37.0366881,15.0061587 C36.8627756,15.7351408 37.3238459,16.4645202 38.0664118,16.6345498 C38.8085732,16.8053739 39.551948,16.3524913 39.7250516,15.6231119 L40.8300026,10.9850378 L56.960588,14.6911272 L54.4259146,25.335855 C54.2520021,26.0648371 54.7130724,26.7942165 55.4556383,26.9642461 C55.562008,26.9884793 55.6675688,27 55.7719163,27 C56.3988102,27 56.9662502,26.5781041 57.1138736,25.9532055 L59.9632073,13.9883646 C60.0473324,13.6383737 59.9858563,13.2697114 59.7925304,12.9646115 Z" id="Path" fill="#434343"></path>
                            <path d="M34.9904639,15.7377018 L33.7376767,5.20644605 C33.6949772,4.84652972 33.5100803,4.51784084 33.2232686,4.2936438 C32.9364569,4.06944676 32.5743168,3.96695668 32.2105654,4.00939398 L9.21325995,6.71096834 C8.45957352,6.79984646 7.92059306,7.47884322 8.00961748,8.22870225 L10.0982675,25.7933395 C10.1812495,26.4887507 10.7746114,27 11.4622345,27 C11.5158103,27 11.5709974,26.9963968 11.6257816,26.9903916 C12.3790652,26.9015134 12.9180457,26.2225167 12.8294241,25.4726576 L10.9019043,9.26401217 L31.1684559,6.88352 L32.2593073,16.0575829 C32.3487345,16.8070416 33.0287039,17.3395096 33.7864186,17.254635 C34.540105,17.1665576 35.0790855,16.4871605 34.9904639,15.7377018 Z" id="Path" fill="#EE9826"></path>
                            <path d="M46.9611637,25.3147787 L44.1954653,14.0450362 C44.1089224,13.6934317 43.8831761,13.3890279 43.5684376,13.1998255 C43.2536991,13.0122231 42.8760945,12.9534224 42.5148188,13.0374234 L20.0679619,18.3270903 C19.3196925,18.5030925 18.859219,19.2407019 19.0388363,19.9739111 L20.4210732,25.6067824 C20.6006905,26.3407917 21.3534503,26.7923974 22.1013115,26.6151951 C22.8495808,26.4391929 23.3100543,25.7015836 23.130437,24.9683743 L22.0735524,20.6627199 L41.8110455,16.012261 L44.2509834,25.9539868 C44.4040663,26.5799947 44.975576,27 45.6046448,27 C45.7128234,27 45.8222267,26.9875998 45.9320381,26.9615995 C46.6803075,26.7851973 47.140781,26.047988 46.9611637,25.3147787 Z" id="Path" fill="#434343"></path>
                            <path d="M66.238169,26.3188373 C66.2001658,25.5799951 65.5945403,25 64.8595421,25 L4.14052842,25 C3.40553027,25 2.79990474,25.5795878 2.76190153,26.3188373 L0.0018177262,80.5386077 C-0.0175881655,80.9190259 0.119061655,81.2912981 0.379424036,81.5674474 C0.640190705,81.8431895 1.00162544,82 1.38004033,82 L67.6188173,82 C67.9968279,82 68.358667,81.8435968 68.6206465,81.5674474 C68.8806046,81.2912981 69.0172544,80.9194332 68.9982528,80.5386077 L66.238169,26.3188373 Z M2.83224789,79.2193632 L5.4508304,27.7802295 L63.547623,27.7802295 L66.1662055,79.2193632 L2.83224789,79.2193632 Z" id="Shape" fill="#434343"></path>
                            <path d="M45,31 C42.7941406,31 41,32.7941406 41,35 C41,37.2058594 42.7941406,39 45,39 C47.2058594,39 49,37.2058594 49,35 C49,32.7941406 47.2058594,31 45,31 Z M45,36.3335937 C44.2644531,36.3335937 43.6667969,35.7355469 43.6667969,35.0003906 C43.6667969,34.2652344 44.2648438,33.6671875 45,33.6671875 C45.7351563,33.6671875 46.3332031,34.2652344 46.3332031,35.0003906 C46.3332031,35.7355469 45.7351563,36.3335937 45,36.3335937 Z" id="Shape" fill="#EE9826"></path>
                            <path d="M24,31 C21.7941406,31 20,32.7941406 20,35 C20,37.2058594 21.7941406,39 24,39 C26.2058594,39 28,37.2058594 28,35 C28,32.7941406 26.2058594,31 24,31 Z M24,36.3335937 C23.2648438,36.3335937 22.6667969,35.7355469 22.6667969,35.0003906 C22.6667969,34.2652344 23.2648438,33.6671875 24,33.6671875 C24.7351563,33.6671875 25.3332031,34.2652344 25.3332031,35.0003906 C25.3332031,35.7355469 24.7351563,36.3335937 24,36.3335937 Z" id="Shape" fill="#EE9826"></path>
                            <path d="M45.5883569,35 L45.4795781,35 C44.7003412,35 44.0679351,35.6271289 44.0679351,36.3998633 C44.0679351,36.5909961 44.105987,36.7735156 44.1767139,36.9396289 L44.1767139,44.0997266 C44.1767139,49.117168 40.0600765,53.1998633 35,53.1998633 C29.9399235,53.1998633 25.8232861,49.1175781 25.8232861,44.0997266 L25.8232861,36.4002734 C25.8232861,35.6275391 25.19088,35.0004102 24.4116431,35.0004102 C23.6324062,35.0004102 23,35.6275391 23,36.4002734 L23,44.1001367 C23,50.6618164 28.3831041,56 35,56 C41.6168959,56 47,50.6618164 47,44.1001367 L47,36.4002734 C47,35.6275391 46.3675938,35 45.5883569,35 Z" id="Path" fill="#EE9826"></path>
                        </g>
                    </g>
                </g>
            </g>
        </g>
    </g>
</svg>