<?xml version="1.0" encoding="UTF-8"?>
<svg id="Layer_2" data-name="Layer 2" xmlns="http://www.w3.org/2000/svg" viewBox="0 0 52.2 52.2">
  <defs>
    <style>
      .cls-1 {
        fill: #231f20;
      }

      .cls-2 {
        fill: none;
        stroke: #000;
        stroke-miterlimit: 10;
      }
    </style>
  </defs>
  <g id="Layer_1-2" data-name="Layer 1">
    <g>
      <g>
        <path d="m27.84,35.59c-2.07-1.17-2.09-3.47-1.64-5.07.45-1.58,1.59-2.8,3.06-3.26.4-.13.84-.24,1.33-.24.25,0,.5.03.77.11.51.15.87.4,1.03.72.13.27.13.58-.02.95-.4,1.03-.99,2.02-1.58,3-.1.17-.25.28-.43.31-.17.04-.34,0-.48-.11-.29-.22-.34-.51-.15-.9.08-.18.19-.36.3-.54.09-.13.57-1.01.73-1.35l.41-.91c.06-.11-.14-.19-.23-.21-1.5-.34-2.99,1.16-3.39,2.51-.26.87-.55,2.82,1.05,3.83,3.98,2.5,14.49-3.28,12.14-10.99-.66-2.18-2.95-3.31-5.36-3.16-1.47.09-2.97.49-4.61,1.23-3.14,1.42-5.96,3.55-8.37,6.31l-.97,1.1c-.67.77-1.35,1.55-2.03,2.32-.42.48-.77.84-1.11,1.16-1.25,1.16-2.5,1.25-3.31,1.12-1.22-.19-2.35-1.01-3.02-2.19-.74-1.29-.98-2.81-.79-4.8.03-.29.06-.58.1-.91l.08-.72-1.05.3c-.58.17-1.11.32-1.63.47-.47.13-.81.14-1.01.03-.11-.07-.19-.18-.23-.34-.08-.29-.05-.67.89-.96.74-.22,1.47-.43,2.22-.64.32-.09.65-.18.97-.27l.1-.03.2-1.23c.17-1.03.34-2.03.51-3.02.04-.23.09-.51.2-.73.16-.33.5-.46.81-.33.39.17.41.54.36.82-.17.86-.34,1.71-.51,2.62l-.26,1.5s2.66-.63,2.96-.7c.32-.08.58-.08.76,0,.16.06.25.18.3.36.03.14.11.51-.72.76-.77.23-1.69.48-2.62.71s-.82.29-.96,1.1c-.05.29-.45,2.44-.16,3.8.19.85.8,3.15,3.23,3.15.52,0,1.05-.32,1.52-.73.46-.39.88-.86,1.28-1.31l.27-.3c.45-.5.9-1,1.34-1.51.74-.84,1.51-1.71,2.29-2.55,2.72-2.88,5.93-4.98,9.56-6.25,1.85-.65,3.39-.82,4.88-.6,5.22.8,5.59,5.13,5.64,5.77.68,8-9.6,13.65-14.66,10.79Z"/>
        <path class="cls-1" d="m29.67,17.46c-.4.17-.88.09-1.16-.23-.03-.04-.06-.08-.09-.12-.18-.33.01-.67.33-.82.38-.19.79-.37,1.2-.42.23-.03.56.17.71.37.22.3.09.67-.22.86-.24.14-.49.25-.77.37Z"/>
      </g>
      <circle class="cls-2" cx="26.1" cy="26.1" r="25.6"/>
    </g>
  </g>
</svg>