<svg xmlns="http://www.w3.org/2000/svg" width="29" height="29" viewBox="0 0 29 29">
    <g fill="none" fill-rule="nonzero">
        <path fill="#1DA1F2" d="M14.333.58C6.645.58.413 6.812.413 14.5s6.232 13.92 13.92 13.92 13.92-6.232 13.92-13.92S22.021.58 14.333.58z"/>
        <path fill="#FFF" d="M19.996 11.983c.005.119.007.238.007.354 0 3.625-2.757 7.802-7.8 7.802a7.736 7.736 0 0 1-4.202-1.232c.213.026.432.036.654.036a5.491 5.491 0 0 0 3.405-1.173 2.748 2.748 0 0 1-2.561-1.903c.41.078.834.062 1.237-.048a2.743 2.743 0 0 1-2.2-2.688v-.033c.37.204.793.329 1.243.343A2.74 2.74 0 0 1 8.93 9.78a7.795 7.795 0 0 0 5.65 2.866 2.742 2.742 0 0 1 4.672-2.5 5.506 5.506 0 0 0 1.74-.666 2.755 2.755 0 0 1-1.205 1.518 5.509 5.509 0 0 0 1.575-.434 5.56 5.56 0 0 1-1.367 1.42z"/>
    </g>
</svg>
