<svg xmlns="http://www.w3.org/2000/svg" xmlns:xlink="http://www.w3.org/1999/xlink" width="160" height="159" viewBox="0 0 160 159">
  <defs>
    <filter id="Rectangle_11" x="0" y="0" width="160" height="159" filterUnits="userSpaceOnUse">
      <feOffset dy="3" input="SourceAlpha"/>
      <feGaussianBlur stdDeviation="6" result="blur"/>
      <feFlood flood-opacity="0.039"/>
      <feComposite operator="in" in2="blur"/>
      <feComposite in="SourceGraphic"/>
    </filter>
    <filter id="Oval_3" x="96" y="101" width="54" height="53" filterUnits="userSpaceOnUse">
      <feOffset dx="-3" input="SourceAlpha"/>
      <feGaussianBlur stdDeviation="2" result="blur-2"/>
      <feFlood flood-color="#d3d3d3" flood-opacity="0.502"/>
      <feComposite operator="in" in2="blur-2"/>
      <feComposite in="SourceGraphic"/>
    </filter>
  </defs>
  <g id="Group_44" data-name="Group 44" transform="translate(18 15)">
    <g id="Group_20" data-name="Group 20">
      <g transform="matrix(1, 0, 0, 1, -18, -15)" filter="url(#Rectangle_11)">
        <rect id="Rectangle_11-2" data-name="Rectangle 11" width="124" height="123" rx="61.5" transform="translate(18 15)" fill="#fff"/>
      </g>
      <g id="picture" transform="translate(34.78 37.963)">
        <path id="Shape" d="M54.986,45.555H.965A.979.979,0,0,1,0,44.565V.99A.979.979,0,0,1,.965,0H54.986a.979.979,0,0,1,.965.99V44.565A.979.979,0,0,1,54.986,45.555ZM1.93,1.981V43.575H54.022V1.981Z" fill="#434343"/>
        <path id="Shape-2" data-name="Shape" d="M5.293,10.63a5.315,5.315,0,1,1,5.293-5.314A5.31,5.31,0,0,1,5.293,10.63Zm0-8.721A3.406,3.406,0,1,0,8.685,5.314,3.4,3.4,0,0,0,5.293,1.909Z" transform="translate(10.585 10.63)" fill="#434343"/>
        <path id="Shape-3" data-name="Shape" d="M.966,24.3a.916.916,0,0,0,.637-.263L17.348,8.861l9.944,10.882a.907.907,0,0,0,1.365,0,1.127,1.127,0,0,0,0-1.494l-4.64-5.078L32.879,2.55,43.748,13.456a.908.908,0,0,0,1.364-.065,1.127,1.127,0,0,0-.06-1.493L33.47.277A.946.946,0,0,0,32.775,0a.935.935,0,0,0-.67.343L22.651,11.676l-4.578-5.01a.907.907,0,0,0-1.32-.046L.328,22.447a1.128,1.128,0,0,0-.087,1.492A.928.928,0,0,0,.966,24.3Z" transform="translate(6.049 16.704)" fill="#ee9826"/>
      </g>
    </g>
    <g id="Group_42" data-name="Group 42" transform="translate(87 92)">
      <g transform="matrix(1, 0, 0, 1, -105, -107)" filter="url(#Oval_3)">
        <ellipse id="Oval_3-2" data-name="Oval 3" cx="21" cy="20.5" rx="21" ry="20.5" transform="translate(105 107)" fill="#ee9826"/>
      </g>
      <g id="add" transform="translate(9 9.111)">
        <path id="Shape-4" data-name="Shape" d="M22.7,10.453H13.674V1.318A1.625,1.625,0,0,0,12,0a1.625,1.625,0,0,0-1.674,1.318v9.135H1.3a1.633,1.633,0,0,0-1.3,1.7,1.633,1.633,0,0,0,1.3,1.7h9.023v9.135A1.625,1.625,0,0,0,12,24.3a1.625,1.625,0,0,0,1.674-1.318V13.843H22.7a1.633,1.633,0,0,0,1.3-1.7A1.633,1.633,0,0,0,22.7,10.453Z" fill="#fff"/>
      </g>
    </g>
  </g>
</svg>
