<svg xmlns="http://www.w3.org/2000/svg" width="29" height="29" viewBox="0 0 29 29">
    <g fill="none" fill-rule="nonzero">
        <path fill="#C4302B" d="M14.417.58C6.729.58.497 6.812.497 14.5s6.232 13.92 13.92 13.92 13.92-6.232 13.92-13.92S22.105.58 14.417.58z"/>
        <path fill="#FFF" d="M14.417 20.155c-7.126 0-7.25-.642-7.25-5.655s.124-5.655 7.25-5.655c7.125 0 7.25.642 7.25 5.655s-.125 5.655-7.25 5.655zm2.324-5.897l-3.257-1.52c-.284-.132-.517.016-.517.33v2.863c0 .315.233.463.517.33l3.256-1.519c.285-.133.285-.35.001-.484z"/>
    </g>
</svg>
