<?xml version="1.0" encoding="UTF-8"?>
<svg width="25px" height="25px" viewBox="0 0 25 25" version="1.1" xmlns="http://www.w3.org/2000/svg" xmlns:xlink="http://www.w3.org/1999/xlink">
    <!-- Generator: Sketch 51.3 (57544) - http://www.bohemiancoding.com/sketch -->
    <title>cancelled</title>
    <desc>Created with Sketch.</desc>
    <defs></defs>
    <g id="Seller" stroke="none" stroke-width="1" fill="none" fill-rule="evenodd" opacity="0.2">
        <g id="cancelled" fill-rule="nonzero">
            <g id="Group-22" fill="#030104">
                <path d="M0.213,4.981 L1.891,4.981 C2.012,4.981 2.108,4.883 2.108,4.759 C2.112,3.414 3.176,2.317 4.485,2.315 C4.606,2.315 4.702,2.217 4.702,2.093 L4.702,0.369 C4.701,0.246 4.605,0.146 4.484,0.146 C2.012,0.146 0,2.217 0,4.759 C0,4.883 0.094,4.981 0.213,4.981 Z" id="Path"></path>
                <path d="M19.563,5.035 L21.241,5.035 C21.362,5.035 21.458,4.937 21.458,4.813 C21.462,3.468 22.526,2.371 23.835,2.369 C23.956,2.369 24.052,2.271 24.052,2.147 L24.052,0.423000003 C24.051,0.300000003 23.955,0.200000003 23.834,0.200000003 C21.362,0.200000003 19.35,2.271 19.35,4.813 C19.35,4.937 19.444,5.035 19.563,5.035 Z" id="Path-Copy" transform="translate(21.701000, 2.617500) scale(-1, 1) translate(-21.701000, -2.617500) "></path>
                <path d="M0.213,9.833 L1.891,9.833 C2.012,9.833 2.108,9.735 2.108,9.612 L2.108,6.082 C2.108,5.961 2.012,5.86 1.891,5.86 L0.213,5.86 C0.094,5.86 0,5.96 0,6.082 L0,9.612 C0,9.735 0.094,9.833 0.213,9.833 Z" id="Path"></path>
                <path d="M22.213,9.773 L23.891,9.773 C24.012,9.773 24.108,9.675 24.108,9.552 L24.108,6.022 C24.108,5.901 24.012,5.8 23.891,5.8 L22.213,5.8 C22.094,5.8 22,5.9 22,6.022 L22,9.552 C22,9.675 22.094,9.773 22.213,9.773 Z" id="Path-Copy-2"></path>
                <path d="M0.213,14.438 L1.891,14.438 C2.012,14.438 2.108,14.341 2.108,14.217 L2.108,10.688 C2.108,10.567 2.012,10.465 1.891,10.465 L0.213,10.465 C0.094,10.465 0,10.567 0,10.688 L0,14.217 C0,14.341 0.094,14.438 0.213,14.438 Z" id="Path"></path>
                <path d="M22.213,14.373 L23.891,14.373 C24.012,14.373 24.108,14.276 24.108,14.152 L24.108,10.623 C24.108,10.502 24.012,10.4 23.891,10.4 L22.213,10.4 C22.094,10.4 22,10.502 22,10.623 L22,14.152 C22,14.276 22.094,14.373 22.213,14.373 Z" id="Path-Copy-3"></path>
                <path d="M0.213,19.14 L1.891,19.14 C2.012,19.14 2.108,19.044 2.108,18.919 L2.108,15.393 C2.108,15.274 2.012,15.172 1.891,15.172 L0.213,15.172 C0.094,15.172 0,15.274 0,15.393 L0,18.919 C0,19.044 0.094,19.14 0.213,19.14 Z" id="Path"></path>
                <path d="M23.891,15.172 L22.217,15.172 C22.096,15.172 22,15.274 22,15.393 L22,18.919 C22,19.044 22.096,19.14 22.217,19.14 L23.891,19.14 C24.01,19.14 24.106,19.044 24.106,18.919 L24.106,15.393 C24.106,15.274 24.011,15.172 23.891,15.172 Z" id="Path"></path>
                <path d="M18.211,22.638 L14.779,22.638 C14.662,22.638 14.562,22.738 14.562,22.859 L14.562,24.584 C14.562,24.709 14.662,24.807 14.779,24.807 L18.211,24.807 C18.332,24.807 18.428,24.709 18.428,24.584 L18.428,22.859 C18.428,22.738 18.332,22.638 18.211,22.638 Z" id="Path"></path>
                <path d="M13.729,22.638 L10.297,22.638 C10.18,22.638 10.082,22.738 10.082,22.859 L10.082,24.584 C10.082,24.709 10.18,24.807 10.297,24.807 L13.729,24.807 C13.85,24.807 13.946,24.709 13.946,24.584 L13.946,22.859 C13.945,22.738 13.85,22.638 13.729,22.638 Z" id="Path"></path>
                <path d="M9.154,22.638 L5.723,22.638 C5.606,22.638 5.508,22.738 5.508,22.859 L5.508,24.584 C5.508,24.709 5.606,24.807 5.723,24.807 L9.155,24.807 C9.278,24.807 9.372,24.709 9.372,24.584 L9.372,22.859 C9.371,22.738 9.277,22.638 9.154,22.638 Z" id="Path"></path>
                <path d="M14.779,2.315 L18.211,2.315 C18.332,2.315 18.428,2.217 18.428,2.093 L18.428,0.369 C18.428,0.246 18.332,0.146 18.211,0.146 L14.779,0.146 C14.662,0.146 14.562,0.246 14.562,0.369 L14.562,2.094 C14.562,2.217 14.662,2.315 14.779,2.315 Z" id="Path"></path>
                <path d="M10.297,2.315 L13.729,2.315 C13.85,2.315 13.946,2.217 13.946,2.093 L13.946,0.369 C13.945,0.246 13.85,0.146 13.729,0.146 L10.297,0.146 C10.18,0.146 10.082,0.246 10.082,0.369 L10.082,2.094 C10.082,2.217 10.18,2.315 10.297,2.315 Z" id="Path"></path>
                <path d="M5.723,2.315 L9.155,2.315 C9.278,2.315 9.372,2.217 9.372,2.093 L9.372,0.369 C9.371,0.246 9.277,0.146 9.154,0.146 L5.723,0.146 C5.605,0.146 5.508,0.246 5.508,0.369 L5.508,2.094 C5.508,2.217 5.605,2.315 5.723,2.315 Z" id="Path"></path>
                <path d="M4.484,22.584 C3.175,22.578 2.111,21.486 2.107,20.141 C2.107,20.02 2.011,19.922 1.89,19.922 L0.213,19.922 C0.094,19.921 0,20.019 0,20.14 C0,22.685 2.012,24.751 4.484,24.751 C4.605,24.751 4.701,24.653 4.701,24.528 L4.701,22.806 C4.701,22.685 4.605,22.584 4.484,22.584 Z" id="Path"></path>
                <path d="M23.768,19.921 L22.094,19.921 C21.973,19.921 21.877,20.019 21.877,20.14 C21.873,21.486 20.807,22.578 19.498,22.583 C19.381,22.583 19.283,22.685 19.283,22.806 L19.283,24.529 C19.283,24.654 19.381,24.752 19.498,24.752 C21.973,24.752 23.982,22.686 23.982,20.141 C23.982,20.019 23.889,19.921 23.768,19.921 Z" id="Path"></path>
            </g>
            <g id="Group-22" transform="translate(5.800000, 6.000000)" fill="#000000">
                <rect id="Rectangle-13" transform="translate(6.500000, 6.500000) rotate(-45.000000) translate(-6.500000, -6.500000) " x="-1" y="5" width="15" height="3"></rect>
                <rect id="Rectangle-13-Copy" transform="translate(6.500000, 6.500000) rotate(-315.000000) translate(-6.500000, -6.500000) " x="-1" y="5" width="15" height="3"></rect>
            </g>
        </g>
    </g>
</svg>