<?xml version="1.0" encoding="UTF-8"?>
<svg width="27px" height="25px" viewBox="0 0 27 25" version="1.1" xmlns="http://www.w3.org/2000/svg" xmlns:xlink="http://www.w3.org/1999/xlink">
    <!-- Generator: Sketch 53.2 (72643) - https://sketchapp.com -->
    <title>icon (2)</title>
    <desc>Created with Sketch.</desc>
    <g id="Seller" stroke="none" stroke-width="1" fill="none" fill-rule="evenodd" opacity="0.200000003">
        <g id="10-new-orders" transform="translate(-1072.000000, -167.000000)" fill="#030104" fill-rule="nonzero">
            <g id="cards/deliveries-copy-2" transform="translate(829.000000, 157.000000)">
                <g id="icon-(2)" transform="translate(243.000000, 10.000000)">
                    <path d="M0.213,4.981 L1.891,4.981 C2.012,4.981 2.108,4.883 2.108,4.759 C2.112,3.414 3.176,2.317 4.485,2.315 C4.606,2.315 4.702,2.217 4.702,2.093 L4.702,0.369 C4.701,0.246 4.605,0.146 4.484,0.146 C2.012,0.146 0,2.217 0,4.759 C0,4.883 0.094,4.981 0.213,4.981 Z" id="Path"></path>
                    <path d="M0.213,9.833 L1.891,9.833 C2.012,9.833 2.108,9.735 2.108,9.612 L2.108,6.082 C2.108,5.961 2.012,5.86 1.891,5.86 L0.213,5.86 C0.094,5.86 0,5.96 0,6.082 L0,9.612 C0,9.735 0.094,9.833 0.213,9.833 Z" id="Path"></path>
                    <path d="M0.213,14.438 L1.891,14.438 C2.012,14.438 2.108,14.341 2.108,14.217 L2.108,10.688 C2.108,10.567 2.012,10.465 1.891,10.465 L0.213,10.465 C0.094,10.465 0,10.567 0,10.688 L0,14.217 C0,14.341 0.094,14.438 0.213,14.438 Z" id="Path"></path>
                    <path d="M0.213,19.14 L1.891,19.14 C2.012,19.14 2.108,19.044 2.108,18.919 L2.108,15.393 C2.108,15.274 2.012,15.172 1.891,15.172 L0.213,15.172 C0.094,15.172 0,15.274 0,15.393 L0,18.919 C0,19.044 0.094,19.14 0.213,19.14 Z" id="Path"></path>
                    <path d="M23.818,9.833 C23.937,9.833 24.031,9.735 24.031,9.612 L24.031,9.132 L23.273,9.832 L23.818,9.832 L23.818,9.833 L23.818,9.833 Z" id="Path"></path>
                    <path d="M23.818,10.465 L22.908,10.465 L21.924,11.49 L21.924,14.217 C21.924,14.341 22.022,14.438 22.139,14.438 L23.819,14.438 C23.938,14.438 24.032,14.341 24.032,14.217 L24.032,10.688 C24.031,10.567 23.938,10.465 23.818,10.465 Z" id="Path"></path>
                    <path d="M23.816,15.172 L22.142,15.172 C22.021,15.172 21.925,15.274 21.925,15.393 L21.925,18.919 C21.925,19.044 22.021,19.14 22.142,19.14 L23.816,19.14 C23.935,19.14 24.031,19.044 24.031,18.919 L24.031,15.393 C24.031,15.274 23.936,15.172 23.816,15.172 Z" id="Path"></path>
                    <path d="M18.211,22.638 L14.779,22.638 C14.662,22.638 14.562,22.738 14.562,22.859 L14.562,24.584 C14.562,24.709 14.662,24.807 14.779,24.807 L18.211,24.807 C18.332,24.807 18.428,24.709 18.428,24.584 L18.428,22.859 C18.428,22.738 18.332,22.638 18.211,22.638 Z" id="Path"></path>
                    <path d="M13.729,22.638 L10.297,22.638 C10.18,22.638 10.082,22.738 10.082,22.859 L10.082,24.584 C10.082,24.709 10.18,24.807 10.297,24.807 L13.729,24.807 C13.85,24.807 13.946,24.709 13.946,24.584 L13.946,22.859 C13.945,22.738 13.85,22.638 13.729,22.638 Z" id="Path"></path>
                    <path d="M9.154,22.638 L5.723,22.638 C5.606,22.638 5.508,22.738 5.508,22.859 L5.508,24.584 C5.508,24.709 5.606,24.807 5.723,24.807 L9.155,24.807 C9.278,24.807 9.372,24.709 9.372,24.584 L9.372,22.859 C9.371,22.738 9.277,22.638 9.154,22.638 Z" id="Path"></path>
                    <path d="M14.779,2.315 L18.211,2.315 C18.332,2.315 18.428,2.217 18.428,2.093 L18.428,0.369 C18.428,0.246 18.332,0.146 18.211,0.146 L14.779,0.146 C14.662,0.146 14.562,0.246 14.562,0.369 L14.562,2.094 C14.562,2.217 14.662,2.315 14.779,2.315 Z" id="Path"></path>
                    <path d="M10.297,2.315 L13.729,2.315 C13.85,2.315 13.946,2.217 13.946,2.093 L13.946,0.369 C13.945,0.246 13.85,0.146 13.729,0.146 L10.297,0.146 C10.18,0.146 10.082,0.246 10.082,0.369 L10.082,2.094 C10.082,2.217 10.18,2.315 10.297,2.315 Z" id="Path"></path>
                    <path d="M5.723,2.315 L9.155,2.315 C9.278,2.315 9.372,2.217 9.372,2.093 L9.372,0.369 C9.371,0.246 9.277,0.146 9.154,0.146 L5.723,0.146 C5.605,0.146 5.508,0.246 5.508,0.369 L5.508,2.094 C5.508,2.217 5.605,2.315 5.723,2.315 Z" id="Path"></path>
                    <path d="M4.484,22.584 C3.175,22.578 2.111,21.486 2.107,20.141 C2.107,20.02 2.011,19.922 1.89,19.922 L0.213,19.922 C0.094,19.921 0,20.019 0,20.14 C0,22.685 2.012,24.751 4.484,24.751 C4.605,24.751 4.701,24.653 4.701,24.528 L4.701,22.806 C4.701,22.685 4.605,22.584 4.484,22.584 Z" id="Path"></path>
                    <path d="M23.768,19.921 L22.094,19.921 C21.973,19.921 21.877,20.019 21.877,20.14 C21.873,21.486 20.807,22.578 19.498,22.583 C19.381,22.583 19.283,22.685 19.283,22.806 L19.283,24.529 C19.283,24.654 19.381,24.752 19.498,24.752 C21.973,24.752 23.982,22.686 23.982,20.141 C23.982,20.019 23.889,19.921 23.768,19.921 Z" id="Path"></path>
                    <path d="M19.498,2.315 C20.797,2.317 20.982,2.503 21.652,3.745 L23.248,2.245 C22.686,0.624 21.355,0.146 19.498,0.146 C19.381,0.146 19.283,0.246 19.283,0.369 L19.283,2.094 C19.283,2.217 19.381,2.315 19.498,2.315 Z" id="Path"></path>
                    <path d="M26.701,4.528 L24.869,2.696 C24.533,2.36 23.986,2.36 23.65,2.696 L12.67,13.677 L7.447,8.417 C7.107,8.08 6.562,8.08 6.224,8.417 L4.395,10.246 C4.057,10.583 4.057,11.131 4.395,11.467 L10.204,17.319 L10.224,17.346 L11.488,18.612 L11.783,18.907 L11.783,18.907 L12.054,19.177 C12.39,19.513 12.937,19.513 13.275,19.177 L26.701,5.749 C27.037,5.413 27.037,4.863 26.701,4.528 Z" id="Path"></path>
                </g>
            </g>
        </g>
    </g>
</svg>