<?xml version="1.0" encoding="UTF-8"?>
<svg width="31px" height="37px" viewBox="0 0 31 37" version="1.1" xmlns="http://www.w3.org/2000/svg" xmlns:xlink="http://www.w3.org/1999/xlink">
    <!-- Generator: Sketch 51.3 (57544) - http://www.bohemiancoding.com/sketch -->
    <title>currency</title>
    <desc>Created with Sketch.</desc>
    <defs></defs>
    <g id="Seller" stroke="none" stroke-width="1" fill="none" fill-rule="evenodd" opacity="0.200000003">
        <g id="13-dashboard" transform="translate(-1358.000000, -158.000000)" fill="#000000" fill-rule="nonzero">
            <g id="currency" transform="translate(1358.000000, 158.551648)">
                <path d="M22.7814608,25.7832311 C22.14711,25.3470278 21.3644528,25.1279536 20.6077209,24.9161555 C20.4425808,24.8699057 20.278009,24.8238721 20.1167755,24.7758213 C19.190997,24.4997633 18.5973452,23.9549955 18.5286612,23.3183044 C18.4731173,22.8033612 18.7787507,22.3066442 19.345909,21.9896674 C19.4658042,21.9227421 19.5992658,21.8727462 19.742174,21.8373744 L19.742174,22.9803639 C19.742174,23.4046806 20.0813326,23.7488165 20.4998294,23.7488165 C20.9181841,23.7488165 21.2574847,23.4046806 21.2574847,22.9803639 L21.2574847,21.8935658 C21.6997759,22.0041475 22.1306315,22.1824469 22.4834985,22.3988556 C22.8414794,22.6187222 23.3072809,22.5025214 23.5239162,22.1393669 C23.7405515,21.7762844 23.6260544,21.3038449 23.2680734,21.0840503 C22.7074497,20.7398423 21.9975251,20.4570846 21.2575557,20.3208567 L21.2575557,19.7684526 C21.2575557,19.3441359 20.9182551,19 20.4999004,19 C20.0814746,19 19.7422451,19.3441359 19.7422451,19.7684526 L19.7422451,20.2743187 C19.3447726,20.3311584 18.962429,20.4493043 18.6148181,20.6435246 C17.5101912,21.2609089 16.9000609,22.3497242 17.0224421,23.4853656 C17.1598102,24.7598283 18.1568298,25.7933888 19.6895423,26.2502676 C19.7068021,26.2553824 19.7247722,26.2604252 19.742174,26.2655401 L19.742174,29.883686 C19.1152102,29.7777149 18.5964219,29.5083567 18.4302164,29.1838157 C18.2375176,28.8071176 17.7803105,28.6602276 17.4089053,28.8556006 C17.0375,29.0510456 16.892603,29.5148403 17.0852308,29.8916104 C17.5459893,30.7924008 18.6149602,31.2998518 19.742103,31.42938 L19.742103,32.2315474 C19.742103,32.6558641 20.0812616,33 20.4997584,33 C20.9181131,33 21.2574137,32.6558641 21.2574137,32.2315474 L21.2574137,31.3739091 C21.4145276,31.3430039 21.5678769,31.3046065 21.7149759,31.2575642 C22.9033448,30.8776964 23.7872879,29.8290075 23.9666335,28.5859542 C24.1299978,27.4538428 23.6869254,26.4060905 22.7814608,25.7832311 Z M22.4673041,28.3634942 C22.3715584,29.0272724 21.8975177,29.587889 21.2595445,29.7917627 C21.2589053,29.7919788 21.258195,29.7921229 21.2574847,29.7924831 L21.2574847,26.7234275 C21.512262,26.8188807 21.7438842,26.9266528 21.931114,27.0553166 C22.5263284,27.4647929 22.5044517,28.1065268 22.4673041,28.3634942 Z" id="Shape"></path>
                <path d="M20.9252234,16.5000938 C20.6644628,16.5000938 20.4057365,16.5097969 20.1499164,16.5286406 L20.1499164,3.56252344 C20.1499164,2.77952344 19.5829128,1.67470313 16.8822348,0.857882812 C15.0529143,0.304734375 12.6353748,0 10.0749946,0 C7.5146143,0 5.09714745,0.304734375 3.26775431,0.857882812 C0.566930961,1.67470313 0,2.77952344 0,3.56252344 L0,26.2501875 C0,27.0331172 0.566930961,28.1379375 3.26775431,28.9546875 C5.09714745,29.5079063 7.51468696,29.8126406 10.0749946,29.8126406 C10.5630216,29.8126406 11.0510487,29.8007578 11.5328274,29.7782578 C12.9969813,33.4155234 16.654823,36 20.9251508,36 C26.4804639,36 31,31.6262812 31,26.2501875 C31.0000727,20.8739531 26.4805365,16.5000938 20.9252234,16.5000938 Z M3.73006134,2.28958594 C5.41385283,1.78038281 7.66711822,1.49997656 10.0749946,1.49997656 C12.4827256,1.49997656 14.7361363,1.78038281 16.4199278,2.28958594 C18.1994066,2.82775781 18.5999564,3.40333594 18.5999564,3.56252344 C18.5999564,3.72178125 18.1994066,4.29728906 16.4199278,4.83553125 C14.7361363,5.34466406 12.4828709,5.62507031 10.0749946,5.62507031 C7.66711822,5.62507031 5.41378017,5.34466406 3.73006134,4.83546094 C1.95043722,4.29728906 1.54996004,3.72178125 1.54996004,3.56252344 C1.54996004,3.40340625 1.95043722,2.82782812 3.73006134,2.28958594 Z M1.54981473,5.5726875 C1.99395787,5.81674219 2.55616623,6.05200781 3.26775431,6.26716406 C5.09714745,6.82038281 7.51468696,7.12504687 10.0749946,7.12504687 C12.6353021,7.12504687 15.0529143,6.8203125 16.8822348,6.26723437 C17.5938229,6.05207812 18.1559586,5.8168125 18.5999564,5.5726875 L18.5999564,7.344 C18.5999564,7.50311719 18.1994066,8.07869531 16.4199278,8.6169375 C14.7360636,9.12607031 12.4828709,9.40647656 10.0749946,9.40647656 C8.95755277,9.40647656 7.86655761,9.34558594 6.83230639,9.22563281 C6.40756227,9.17592187 6.02147088,9.46975781 5.97061202,9.88101562 C5.9196805,10.2922734 6.22287196,10.6657031 6.64783405,10.7149219 C7.74304323,10.8419766 8.89608621,10.9064531 10.0750672,10.9064531 C12.6354475,10.9064531 15.052987,10.6017187 16.8822348,10.0485703 C17.5938229,9.83341406 18.1559586,9.59814844 18.5999564,9.35416406 L18.5999564,14.9063906 C18.5999564,15.0656484 18.1994066,15.6411562 16.4199278,16.1793984 C14.7361363,16.6886016 12.4828709,16.9689375 10.0749946,16.9689375 C7.66711822,16.9689375 5.41370752,16.6886016 3.73006134,16.1793984 C1.95043722,15.6412266 1.54988738,15.0656484 1.54988738,14.9063906 L1.54988738,13.1354297 C1.99388522,13.3794141 2.55609357,13.61475 3.26768166,13.8299062 C5.0970748,14.383125 7.5146143,14.6877891 10.0749219,14.6877891 C11.6002517,14.6877891 13.0609908,14.5818281 14.4165973,14.3727891 C14.8393798,14.3076797 15.1274589,13.9232109 15.0601072,13.5142031 C14.9927555,13.1050547 14.594458,12.8264766 14.1728381,12.8915156 C12.9155345,13.0852969 11.498534,13.1877422 10.0749219,13.1877422 C7.66719088,13.1877422 5.41370752,12.9073359 3.72998868,12.3981328 C1.95036457,11.8599609 1.54981473,11.2844531 1.54981473,11.1252656 L1.54981473,5.5726875 Z M10.0749946,28.3126641 C7.66726354,28.3126641 5.41378017,28.0322578 3.73006134,27.5230547 C1.95043722,26.9848828 1.54988738,26.409375 1.54988738,26.2501875 L1.54988738,24.4790156 C1.99388522,24.723 2.55609357,24.9583359 3.26768166,25.1734922 C5.09700214,25.7267109 7.5146143,26.0314453 10.0749219,26.0314453 C10.3342294,26.0314453 10.5939729,26.0279297 10.8527718,26.0215312 C10.8509554,26.09775 10.8499382,26.1738281 10.8499382,26.2501875 C10.8499382,26.3355469 10.8511734,26.4204844 10.8534257,26.5053516 C10.8541523,26.5317187 10.8555327,26.5582266 10.8565499,26.5847344 C10.8585842,26.6430937 10.8605459,26.7015234 10.8636701,26.7595312 C10.8653412,26.7915234 10.8679568,26.8235156 10.8699185,26.8553672 C10.8732607,26.9076094 10.8764575,26.9600625 10.8805262,27.0120937 C10.8833598,27.0473906 10.8870652,27.0826172 10.8902621,27.1177734 C10.8947667,27.1662891 10.8989081,27.214875 10.9041393,27.2631797 C10.9082806,27.3012891 10.9131485,27.3393281 10.9177258,27.3772266 C10.9231023,27.4221562 10.9282609,27.4671562 10.9342186,27.5119453 C10.9397405,27.5534297 10.9460615,27.5948437 10.9521645,27.6361172 C10.9581223,27.6766875 10.9639347,27.7173984 10.9704737,27.7578281 C10.9778119,27.8031094 10.9858041,27.84825 10.9937962,27.8934609 C11.0000445,27.9293203 11.0062929,27.96525 11.0129046,28.0010391 C11.0222045,28.0504687 11.0323036,28.0997578 11.04233,28.1491172 C11.0485058,28.1795625 11.0546815,28.2100781 11.0611478,28.2403828 C11.0649986,28.2587344 11.068486,28.2773672 11.0726274,28.2958594 C10.7418268,28.3070391 10.4084107,28.3126641 10.0749946,28.3126641 Z M11.7420026,22.2399141 C11.741712,22.2406875 11.7412761,22.24125 11.7409854,22.2420234 C11.7137396,22.3005937 11.6872204,22.359375 11.6610644,22.4185078 C11.6536535,22.4353125 11.645952,22.4519766 11.6386865,22.4688516 C11.6266257,22.4965547 11.6151461,22.5243984 11.6033759,22.5522422 C11.337602,23.1773203 11.1366369,23.8345312 11.0096351,24.5163516 C10.6991781,24.5260547 10.3867594,24.5314687 10.0749219,24.5314687 C7.66704557,24.5314687 5.41370752,24.2510625 3.72998868,23.7418594 C1.95036457,23.2036875 1.54981473,22.6281094 1.54981473,22.4689219 L1.54981473,16.9164844 C1.99388522,17.1604687 2.55609357,17.3958047 3.26768166,17.6109609 C5.09700214,18.1641094 7.51454165,18.4688437 10.0749219,18.4688437 C12.115234,18.4688437 14.0637822,18.2748516 15.6972234,17.9163281 C14.7875037,18.4514062 13.9629363,19.1261953 13.2611567,19.9210781 C13.0584478,20.1507891 12.8679451,20.3888672 12.6892125,20.6341875 C11.8464086,20.7109687 10.9669136,20.7501328 10.0749219,20.7501328 C8.95748012,20.7501328 7.86648495,20.6892422 6.83223374,20.5692891 C6.40748961,20.5199297 6.02139822,20.8133437 5.97053936,21.2246719 C5.91960785,21.6359297 6.2227993,22.0093594 6.64776139,22.0585781 C7.74297058,22.1856328 8.89601356,22.2501094 10.0749946,22.2501094 C10.643088,22.2501094 11.205587,22.2331641 11.7593673,22.2034219 C11.7536275,22.2156562 11.7477424,22.22775 11.7420026,22.2399141 Z M20.9252234,34.5000234 C17.1071036,34.5000234 13.867249,32.0584922 12.7851178,28.7041641 C12.7719672,28.6633828 12.7596884,28.6223203 12.7471916,28.5813984 C12.7262668,28.5127734 12.7062866,28.4437969 12.6871055,28.3744687 C12.6743182,28.3279219 12.6618941,28.2812344 12.6499059,28.2345469 C12.6400974,28.1960156 12.6299256,28.157625 12.6206257,28.1187422 C12.601808,28.0399922 12.5842253,27.9609609 12.5676599,27.8815781 C12.5609029,27.8491641 12.5546545,27.8166094 12.5482608,27.7840547 C12.5348196,27.7150781 12.5222502,27.6458906 12.5106979,27.5766328 C12.5070652,27.5549766 12.5029965,27.5334609 12.4995816,27.5117344 C12.4854865,27.4234922 12.4732803,27.3348984 12.4622367,27.2461641 C12.4590399,27.2203594 12.456061,27.1945547 12.4530821,27.16875 C12.4432736,27.0826875 12.434337,26.9965547 12.4272894,26.9102109 C12.4266355,26.9026172 12.425909,26.8951641 12.4252551,26.8875703 C12.4178442,26.794125 12.4125403,26.7003984 12.408399,26.6064609 C12.4073091,26.5829063 12.4064373,26.5593516 12.4056381,26.5357969 C12.4022233,26.4407344 12.3999709,26.3456016 12.3999709,26.2501875 C12.3999709,26.1357891 12.4031678,26.0220937 12.4078904,25.9088203 C12.4086896,25.8903281 12.4091982,25.871625 12.4100701,25.8531328 C12.4150106,25.7509688 12.4224215,25.6492969 12.4311402,25.5481172 C12.4339011,25.5162656 12.4367346,25.4844141 12.4399315,25.4527031 C12.4487954,25.3628437 12.4592578,25.2734062 12.4709554,25.1844609 C12.4774217,25.1362969 12.4846146,25.0884844 12.4918802,25.0406016 C12.4984918,24.9966562 12.5059027,24.9529219 12.5131682,24.9091875 C12.5312594,24.8027344 12.5507311,24.6968437 12.573109,24.5918672 C12.573327,24.5906016 12.5736903,24.5893359 12.5739809,24.5880703 C13.2129135,21.5770781 15.5523483,19.1594531 18.5743817,18.3192891 C18.5868058,18.3159141 18.5990119,18.3123984 18.6113633,18.3090234 C18.6812579,18.2899687 18.7517338,18.2717578 18.8224276,18.25425 C18.9030752,18.2346328 18.9842314,18.2157187 19.0659689,18.1982109 C19.0971381,18.1914609 19.1285253,18.1847812 19.1599851,18.1783125 C19.2668614,18.1566562 19.3745368,18.1364766 19.4830115,18.1186172 C19.9519302,18.0409922 20.4337815,17.9999297 20.9253687,17.9999297 C25.6258897,17.9999297 29.4501853,21.7009687 29.4501853,26.2500469 C29.45004,30.799125 25.6257444,34.5000234 20.9252234,34.5000234 Z" id="Shape"></path>
                <path d="M3.6078383,9.8616034 C3.73423915,9.90028348 3.86362223,9.93789896 3.99537581,9.97418371 C4.05884387,9.99174943 4.12238839,10 4.18486237,10 C4.55389473,10 4.88851669,9.70732668 4.97767785,9.27244199 C5.08190311,8.76410064 4.81120801,8.25380754 4.37297253,8.13288795 C4.2542949,8.10015183 4.13783484,8.06635113 4.02397467,8.03157455 C3.58803321,7.89814603 3.14199804,8.19986836 3.02722026,8.70519337 C2.91221308,9.2106071 3.17220272,9.72835232 3.6078383,9.8616034 Z" id="Path"></path>
                <path d="M16.7829909,15 C16.8569854,15 16.9323747,14.9875105 17.006883,14.9614978 C17.1608915,14.9076637 17.3160744,14.8496952 17.4681742,14.7892287 C17.8777133,14.6263482 18.097201,14.1046311 17.9583145,13.6240001 C17.8195014,13.1434553 17.3748736,12.8859991 16.9652611,13.0488796 C16.8315865,13.1021107 16.6951958,13.1531024 16.559686,13.2003041 C16.1452286,13.3451825 15.9093711,13.8568219 16.0327687,14.3431377 C16.1342175,14.7421992 16.4455377,15 16.7829909,15 Z" id="Path"></path>
                <path d="M4.37249943,20.1323545 C4.25366648,20.0996106 4.13689819,20.0658018 4.02288279,20.0311057 C3.58769725,19.898799 3.14119428,20.2006819 3.02687301,20.7064822 C2.9126282,21.2120163 3.17315836,21.7295299 3.60887919,21.8621916 C3.73520611,21.9006147 3.86436239,21.9379729 3.99588921,21.9742663 C4.05920561,21.9916587 4.12259847,22 4.18484431,22 C4.5541135,22 4.8887422,21.7069908 4.97775221,21.271825 C5.08182663,20.7631851 4.81082021,20.2529479 4.37249943,20.1323545 Z" id="Path"></path>
            </g>
        </g>
    </g>
</svg>