<?xml version="1.0" encoding="UTF-8"?>
<svg width="25px" height="26px" viewBox="0 0 25 26" version="1.1" xmlns="http://www.w3.org/2000/svg" xmlns:xlink="http://www.w3.org/1999/xlink">
    <!-- Generator: Sketch 51.3 (57544) - http://www.bohemiancoding.com/sketch -->
    <title>today-sales</title>
    <desc>Created with Sketch.</desc>
    <defs></defs>
    <g id="Seller" stroke="none" stroke-width="1" fill="none" fill-rule="evenodd" opacity="0.200000003">
        <g id="13-dashboard" transform="translate(-1133.000000, -159.000000)" fill="#000000" fill-rule="nonzero">
            <g id="today-sales" transform="translate(1133.000000, 159.551648)">
                <path d="M3.56598245,13.4224129 L7.57577301,9.55582426 L8.55526614,10.500288 C8.85107368,10.78558 9.33076976,10.78558 9.6266278,10.500288 L14.3939422,5.90322903 L14.3939422,7.06168614 C14.3939422,7.46512746 14.7331335,7.79220518 15.1515166,7.79220518 C15.5698996,7.79220518 15.9090909,7.46512746 15.9090909,7.06168614 L15.9090909,4.13960995 C15.9090909,4.13887944 15.9089899,4.13819762 15.9089899,4.1374671 C15.9077778,3.73986993 15.5722734,3.40909091 15.151264,3.40909091 L12.1212191,3.40909091 C11.7028361,3.40909091 11.3636448,3.73616864 11.3636448,4.13960995 C11.3636448,4.54305127 11.7028361,4.870129 12.1212191,4.870129 L13.3225805,4.870129 L9.09092172,8.95066229 L8.11142858,8.00619856 C7.81562105,7.72090652 7.33592497,7.72090652 7.04006693,8.00619856 L2.4946208,12.3893128 C2.19876276,12.6746049 2.19876276,13.1371208 2.4946208,13.4224129 C2.79042833,13.7076562 3.27017492,13.7077049 3.56598245,13.4224129 Z" id="Path"></path>
                <path d="M4.11931818,21.5909091 L8.38068182,21.5909091 C8.77291667,21.5909091 9.09090909,21.2729167 9.09090909,20.8806818 L9.09090909,16.6193182 C9.09090909,16.2270833 8.77291667,15.9090909 8.38068182,15.9090909 L4.11931818,15.9090909 C3.72708333,15.9090909 3.40909091,16.2270833 3.40909091,16.6193182 L3.40909091,20.8806818 C3.40909091,21.2729167 3.72708333,21.5909091 4.11931818,21.5909091 Z M4.82954545,17.3295455 L7.67045455,17.3295455 L7.67045455,20.1704545 L4.82954545,20.1704545 L4.82954545,17.3295455 Z" id="Shape"></path>
                <path d="M15.1988636,11.3636364 L10.9375,11.3636364 C10.5452652,11.3636364 10.2272727,11.6907143 10.2272727,12.0941558 L10.2272727,20.8603896 C10.2272727,21.2638312 10.5452652,21.5909091 10.9375,21.5909091 L15.1988636,21.5909091 C15.5910985,21.5909091 15.9090909,21.2638312 15.9090909,20.8603896 L15.9090909,12.0941558 C15.9090909,11.6907143 15.5910985,11.3636364 15.1988636,11.3636364 Z M14.4886364,20.1298701 L11.6477273,20.1298701 L11.6477273,12.8246753 L14.4886364,12.8246753 L14.4886364,20.1298701 Z" id="Shape"></path>
                <path d="M16.6624768,10.8391608 L17.4158671,10.8391608 L17.4158671,21.9842657 C17.4158671,22.3946037 17.753185,22.7272727 18.1692574,22.7272727 L22.7398253,22.7272727 C23.1558977,22.7272727 23.4932157,22.3946037 23.4932157,21.9842657 L23.4932157,10.8391608 L24.246606,10.8391608 C24.5212921,10.8391608 24.7741801,10.6916987 24.9066261,10.4543823 C25.0390722,10.2170163 25.0300817,9.92744172 24.8830701,9.69859557 L21.0658925,3.75453963 C20.9277207,3.53941434 20.6875399,3.40909091 20.4294284,3.40909091 C20.428675,3.40909091 20.4279216,3.40909091 20.4271682,3.40909091 C20.1682028,3.40988345 19.9278211,3.54174242 19.7905534,3.7583042 L16.0236018,9.70236014 C15.8784486,9.93145396 15.870764,10.2201369 16.0035616,10.4563636 C16.136309,10.6925903 16.3885943,10.8391608 16.6624768,10.8391608 Z M20.4336473,5.54736597 L22.8776958,9.35314685 L22.7398253,9.35314685 C22.323753,9.35314685 21.986435,9.68581585 21.986435,10.0961538 L21.986435,21.2412587 L18.9226477,21.2412587 L18.9226477,10.0961538 C18.9226477,9.68581585 18.5853298,9.35314685 18.1692574,9.35314685 L18.0217938,9.35314685 L20.4336473,5.54736597 Z" id="Shape"></path>
                <path d="M24.2675781,23.5351562 L1.46484375,23.5351562 L1.46484375,0.732421875 C1.46484375,0.327929687 1.13691406,0 0.732421875,0 C0.327929688,0 0,0.327929688 0,0.732421875 L0,24.2675781 C0,24.6720703 0.327929688,25 0.732421875,25 L24.2675781,25 C24.6720703,25 25,24.6720703 25,24.2675781 C25,23.8630859 24.6720703,23.5351562 24.2675781,23.5351562 Z" id="Path"></path>
            </g>
        </g>
    </g>
</svg>