<?xml version="1.0" encoding="UTF-8"?>
<svg width="25px" height="26px" viewBox="0 0 25 26" version="1.1" xmlns="http://www.w3.org/2000/svg" xmlns:xlink="http://www.w3.org/1999/xlink">
    <!-- Generator: Sketch 53.2 (72643) - https://sketchapp.com -->
    <title>pending</title>
    <desc>Created with Sketch.</desc>
    <g id="Seller" stroke="none" stroke-width="1" fill="none" fill-rule="evenodd" opacity="0.200000003">
        <g id="10-new-orders" transform="translate(-789.000000, -169.000000)" fill="#000000" fill-rule="nonzero">
            <g id="cards/deliveries-copy" transform="translate(544.000000, 157.000000)">
                <g id="pending" transform="translate(245.000000, 12.000000)">
                    <path d="M20.3704834,11.003892 L20.3704834,2.06959424 C20.3704834,0.928472103 19.5426941,0 18.5253144,0 L1.84516904,0 C0.827789307,0 0,0.928472103 0,2.06959424 L0,20.7785211 C0,21.9198572 0.827789307,22.8481153 1.84516904,22.8481153 L12.5869751,22.8481153 C13.8391495,24.7581151 15.8559799,26 18.1268692,26 C21.9167709,26 25,22.5417623 25,18.2909004 C25,14.9208034 23.0619431,12.0493858 20.3704834,11.003892 Z M8.3732605,1.68472762 L11.9972229,1.68472762 L11.9972229,6.33500366 L10.4639053,5.64784874 C10.284996,5.56783752 10.0854874,5.56783752 9.90657808,5.64784874 L8.3732605,6.33500366 L8.3732605,1.68472762 Z M1.84516904,21.1633877 C1.65596006,21.1633877 1.50203706,20.9907433 1.50203706,20.7785211 L1.50203706,2.06959424 C1.50203706,1.85737205 1.65596006,1.68472762 1.84516904,1.68472762 L6.87141416,1.68472762 L6.87141416,7.57881396 C6.87141416,7.85821135 6.99501035,8.11942434 7.20119478,8.27623776 C7.40756987,8.43283715 7.6696396,8.46471331 7.90100098,8.36095544 L10.1852417,7.33728287 L12.4696731,8.36095544 C12.5595093,8.40117502 12.6541138,8.42107084 12.748146,8.42107084 C12.8961563,8.42107084 13.0432129,8.37186607 13.1694794,8.27623776 C13.3756638,8.11942434 13.49926,7.85821135 13.49926,7.57881396 L13.49926,1.68472762 L18.5253144,1.68472762 C18.7145233,1.68472762 18.8684463,1.85737205 18.8684463,2.06959424 L18.8684463,10.6267269 C18.6248779,10.5972041 18.3774948,10.5818008 18.1268692,10.5818008 C14.3369675,10.5818008 11.2537384,14.0400385 11.2537384,18.2909004 C11.2537384,19.3058017 11.4297867,20.2751351 11.7488861,21.1633877 L1.84516904,21.1633877 Z M18.1268692,24.3152724 C15.1651382,24.3152724 12.7557754,21.6126484 12.7557754,18.2909004 C12.7557754,14.9689385 15.1651382,12.2665284 18.1268692,12.2665284 C21.0884094,12.2665284 23.4979629,14.9689385 23.4979629,18.2909004 C23.4979629,21.6126484 21.0884094,24.3152724 18.1268692,24.3152724 Z" id="Shape"></path>
                    <path d="M21.0536708,16.9427333 L18.82995,16.9427333 L18.82995,14.390822 C18.82995,13.8702435 18.4622497,13.4482759 18.0086207,13.4482759 C17.5552002,13.4482759 17.1875,13.8702435 17.1875,14.390822 L17.1875,17.8852794 C17.1875,18.4056185 17.5552002,18.8275862 18.0086207,18.8275862 L21.0536708,18.8275862 C21.5072998,18.8275862 21.875,18.4056185 21.875,17.8852794 C21.875,17.364701 21.5072998,16.9427333 21.0536708,16.9427333 Z" id="Path"></path>
                </g>
            </g>
        </g>
    </g>
</svg>