<?xml version="1.0" encoding="UTF-8"?>
<svg width="25px" height="25px" viewBox="0 0 25 25" version="1.1" xmlns="http://www.w3.org/2000/svg" xmlns:xlink="http://www.w3.org/1999/xlink">
    <!-- Generator: Sketch 51.3 (57544) - http://www.bohemiancoding.com/sketch -->
    <title>progress</title>
    <desc>Created with Sketch.</desc>
    <defs></defs>
    <g id="Seller" stroke="none" stroke-width="1" fill="none" fill-rule="evenodd" opacity="0.2">
        <g id="13-dashboard-options" transform="translate(-786.000000, -552.000000)" fill="#000000" fill-rule="nonzero">
            <g id="Group-7-Copy" transform="translate(546.000000, 543.000000)">
                <g id="progress" transform="translate(240.000000, 9.000000)">
                    <g id="Icon">
                        <path d="M13.75,0.0375 L13.75,2.5625 C19.2375,3.2375 23.125,8.225 22.45,13.7125 C21.875,18.2625 18.3,21.875 13.75,22.4125 L13.75,24.9125 C20.625,24.225 25.625,18.125 24.9375,11.25 C24.375,5.3125 19.6625,0.625 13.75,0.0375 Z M11.25,0.075 C8.8125,0.3125 6.4875,1.25 4.5875,2.825 L6.375,4.675 C7.775,3.55 9.4625,2.825 11.25,2.575 L11.25,0.075 Z M2.825,4.5875 C1.26206918,6.4841801 0.30025247,8.80385571 0.0625,11.25 L2.5625,11.25 C2.8,9.475 3.5,7.7875 4.6125,6.375 L2.825,4.5875 Z M0.075,13.75 C0.325,16.2 1.2875,18.5125 2.8375,20.4125 L4.6125,18.625 C3.50866198,17.2119945 2.80494265,15.5282489 2.575,13.75 L0.075,13.75 Z M6.375,20.4625 L4.5875,22.175 C6.48097443,23.753375 8.7990879,24.7362899 11.25,25 L11.25,22.5 C9.47175109,22.2700573 7.78800546,21.566338 6.375,20.4625 Z M13.125,6.25 L13.125,12.8125 L18.75,16.15 L17.8125,17.6875 L11.25,13.75 L11.25,6.25 L13.125,6.25 Z" id="Icon-Shape"></path>
                    </g>
                </g>
            </g>
        </g>
    </g>
</svg>