<?xml version="1.0" encoding="UTF-8"?>
<svg width="25px" height="27px" viewBox="0 0 25 27" version="1.1" xmlns="http://www.w3.org/2000/svg" xmlns:xlink="http://www.w3.org/1999/xlink">
    <!-- Generator: Sketch 53.2 (72643) - https://sketchapp.com -->
    <title>list</title>
    <desc>Created with Sketch.</desc>
    <g id="Seller" stroke="none" stroke-width="1" fill="none" fill-rule="evenodd" opacity="0.200000003">
        <g id="10-new-orders" transform="translate(-503.000000, -166.000000)" fill="#000000" fill-rule="nonzero">
            <g id="cards/deliveries" transform="translate(256.000000, 157.000000)">
                <g id="list" transform="translate(247.000000, 9.000000)">
                    <path d="M24.9382256,0.9 L8.6555244,0.9 C8.6246372,0.9 8.59375,0.929411765 8.59375,0.970588235 L8.59375,2.62941176 C8.59375,2.66470588 8.61948933,2.7 8.6555244,2.7 L24.9382256,2.7 C24.9691128,2.7 25,2.67058824 25,2.62941176 L25,0.970588235 C25,0.929411765 24.9742607,0.9 24.9382256,0.9 Z" id="Path"></path>
                    <path d="M8.65824343,5.4 L17.1230066,5.4 C17.1552533,5.4 17.1875,5.37058824 17.1875,5.32941176 L17.1875,3.67058824 C17.1875,3.63529412 17.1606277,3.6 17.1230066,3.6 L8.65824343,3.6 C8.62599672,3.6 8.59375,3.62941176 8.59375,3.67058824 L8.59375,5.32941176 C8.59375,5.37058824 8.62062226,5.4 8.65824343,5.4 Z" id="Path"></path>
                    <path d="M24.9382256,10.8 L8.6555244,10.8 C8.6246372,10.8 8.59375,10.8294118 8.59375,10.8705882 L8.59375,12.5294118 C8.59375,12.5647059 8.61948933,12.6 8.6555244,12.6 L24.9382256,12.6 C24.9691128,12.6 25,12.5705882 25,12.5294118 L25,10.8705882 C25,10.8294118 24.9742607,10.8 24.9382256,10.8 Z" id="Path"></path>
                    <path d="M8.65824343,16.2 L17.1230066,16.2 C17.1552533,16.2 17.1875,16.1705882 17.1875,16.1294118 L17.1875,14.4705882 C17.1875,14.4352941 17.1606277,14.4 17.1230066,14.4 L8.65824343,14.4 C8.62599672,14.4 8.59375,14.4294118 8.59375,14.4705882 L8.59375,16.1294118 C8.59375,16.1705882 8.62062226,16.2 8.65824343,16.2 Z" id="Path"></path>
                    <path d="M24.9382256,21.6 L8.6555244,21.6 C8.6246372,21.6 8.59375,21.6294118 8.59375,21.6705882 L8.59375,23.3294118 C8.59375,23.3647059 8.61948933,23.4 8.6555244,23.4 L24.9382256,23.4 C24.9691128,23.4 25,23.3705882 25,23.3294118 L25,21.6705882 C25,21.6294118 24.9742607,21.6 24.9382256,21.6 Z" id="Path"></path>
                    <path d="M17.1230066,24.3 L8.65824343,24.3 C8.62599672,24.3 8.59375,24.3294118 8.59375,24.3705882 L8.59375,26.0294118 C8.59375,26.0647059 8.62062226,26.1 8.65824343,26.1 L17.1230066,26.1 C17.1552533,26.1 17.1875,26.0705882 17.1875,26.0294118 L17.1875,24.3705882 C17.1821255,24.3294118 17.1552533,24.3 17.1230066,24.3 Z" id="Path"></path>
                    <polygon id="Path" points="2.62722732 3.84169611 1.34145518 2.21342756 0 3.89257951 1.28577214 5.51448763 2.62216523 7.2 3.96362041 5.52720848 7.03125 1.68551237 5.69991901 0"></polygon>
                    <polygon id="Path" points="2.62722732 13.7416961 1.34145518 12.1134276 0 13.7925795 1.28577214 15.4144876 2.62216523 17.1 3.96362041 15.4272085 7.03125 11.5855124 5.69991901 9.9"></polygon>
                    <polygon id="Path" points="2.62722732 23.6416961 1.34145518 22.0134276 0 23.6925795 1.28577214 25.3144876 2.62216523 27 3.96362041 25.3208481 7.03125 21.4855124 5.69991901 19.8"></polygon>
                </g>
            </g>
        </g>
    </g>
</svg>